<svg class="marks" width="512" height="580" viewBox="0 0 512 580" version="1.1" xmlns="http://www.w3.org/2000/svg" xmlns:xlink="http://www.w3.org/1999/xlink"><rect width="512" height="580" style="fill: white;"></rect><g transform="translate(106,6)"><g class="mark-group role-frame root"><g transform="translate(0,0)"><path class="background" d="M0,0h0v0h0Z" style="fill: none;"></path><g><g class="mark-group role-row-header row_header"><g transform="translate(-1,0)"><path class="background" d="M0,0h0v40h0Z" style="fill: none;"></path><g><g class="mark-group role-axis"><g transform="translate(0.5,0.5)"><path class="background" d="M0,0h0v0h0Z" style="pointer-events: none; fill: none;"></path><g><g class="mark-text role-axis-label" style="pointer-events: none;"><text text-anchor="end" transform="translate(-2,12.5)" style="font-family: sans-serif; font-size: 10px; fill: #000; opacity: 1;">South Derbyshire</text><text text-anchor="end" transform="translate(-2,32.5)" style="font-family: sans-serif; font-size: 10px; fill: #000; opacity: 1;">Sutton</text></g><g class="mark-rule role-axis-domain" style="pointer-events: none;"><line transform="translate(0,0)" x2="0" y2="40" style="fill: none; stroke: #888; stroke-width: 1; opacity: 1;"></line></g></g><path class="foreground" d="" style="pointer-events: none; display: none; fill: none;"></path></g></g><g class="mark-group role-title"><g transform="translate(-99.2607421875,20)"><path class="background" d="M0,0h0v0h0Z" style="pointer-events: none; fill: none;"></path><g><g class="mark-text role-title-text" style="pointer-events: none;"><text text-anchor="middle" transform="translate(0,0) rotate(-90) translate(0,8)" style="font-family: sans-serif; font-size: 10px; fill: #000; opacity: 1;">&lt;45</text></g></g><path class="foreground" d="" style="pointer-events: none; display: none; fill: none;"></path></g></g></g><path class="foreground" d="" style="display: none; fill: none;"></path></g><g transform="translate(-1,62)"><path class="background" d="M0,0h0v40h0Z" style="fill: none;"></path><g><g class="mark-group role-axis"><g transform="translate(0.5,0.5)"><path class="background" d="M0,0h0v0h0Z" style="pointer-events: none; fill: none;"></path><g><g class="mark-text role-axis-label" style="pointer-events: none;"><text text-anchor="end" transform="translate(-2,12.5)" style="font-family: sans-serif; font-size: 10px; fill: #000; opacity: 1;">South Derbyshire</text><text text-anchor="end" transform="translate(-2,32.5)" style="font-family: sans-serif; font-size: 10px; fill: #000; opacity: 1;">Sutton</text></g><g class="mark-rule role-axis-domain" style="pointer-events: none;"><line transform="translate(0,0)" x2="0" y2="40" style="fill: none; stroke: #888; stroke-width: 1; opacity: 1;"></line></g></g><path class="foreground" d="" style="pointer-events: none; display: none; fill: none;"></path></g></g><g class="mark-group role-title"><g transform="translate(-99.2607421875,20)"><path class="background" d="M0,0h0v0h0Z" style="pointer-events: none; fill: none;"></path><g><g class="mark-text role-title-text" style="pointer-events: none;"><text text-anchor="middle" transform="translate(0,0) rotate(-90) translate(0,8)" style="font-family: sans-serif; font-size: 10px; fill: #000; opacity: 1;">45-49</text></g></g><path class="foreground" d="" style="pointer-events: none; display: none; fill: none;"></path></g></g></g><path class="foreground" d="" style="display: none; fill: none;"></path></g><g transform="translate(-1,124)"><path class="background" d="M0,0h0v40h0Z" style="fill: none;"></path><g><g class="mark-group role-axis"><g transform="translate(0.5,0.5)"><path class="background" d="M0,0h0v0h0Z" style="pointer-events: none; fill: none;"></path><g><g class="mark-text role-axis-label" style="pointer-events: none;"><text text-anchor="end" transform="translate(-2,12.5)" style="font-family: sans-serif; font-size: 10px; fill: #000; opacity: 1;">South Derbyshire</text><text text-anchor="end" transform="translate(-2,32.5)" style="font-family: sans-serif; font-size: 10px; fill: #000; opacity: 1;">Sutton</text></g><g class="mark-rule role-axis-domain" style="pointer-events: none;"><line transform="translate(0,0)" x2="0" y2="40" style="fill: none; stroke: #888; stroke-width: 1; opacity: 1;"></line></g></g><path class="foreground" d="" style="pointer-events: none; display: none; fill: none;"></path></g></g><g class="mark-group role-title"><g transform="translate(-99.2607421875,20)"><path class="background" d="M0,0h0v0h0Z" style="pointer-events: none; fill: none;"></path><g><g class="mark-text role-title-text" style="pointer-events: none;"><text text-anchor="middle" transform="translate(0,0) rotate(-90) translate(0,8)" style="font-family: sans-serif; font-size: 10px; fill: #000; opacity: 1;">50-54</text></g></g><path class="foreground" d="" style="pointer-events: none; display: none; fill: none;"></path></g></g></g><path class="foreground" d="" style="display: none; fill: none;"></path></g><g transform="translate(-1,186)"><path class="background" d="M0,0h0v40h0Z" style="fill: none;"></path><g><g class="mark-group role-axis"><g transform="translate(0.5,0.5)"><path class="background" d="M0,0h0v0h0Z" style="pointer-events: none; fill: none;"></path><g><g class="mark-text role-axis-label" style="pointer-events: none;"><text text-anchor="end" transform="translate(-2,12.5)" style="font-family: sans-serif; font-size: 10px; fill: #000; opacity: 1;">South Derbyshire</text><text text-anchor="end" transform="translate(-2,32.5)" style="font-family: sans-serif; font-size: 10px; fill: #000; opacity: 1;">Sutton</text></g><g class="mark-rule role-axis-domain" style="pointer-events: none;"><line transform="translate(0,0)" x2="0" y2="40" style="fill: none; stroke: #888; stroke-width: 1; opacity: 1;"></line></g></g><path class="foreground" d="" style="pointer-events: none; display: none; fill: none;"></path></g></g><g class="mark-group role-title"><g transform="translate(-99.2607421875,20)"><path class="background" d="M0,0h0v0h0Z" style="pointer-events: none; fill: none;"></path><g><g class="mark-text role-title-text" style="pointer-events: none;"><text text-anchor="middle" transform="translate(0,0) rotate(-90) translate(0,8)" style="font-family: sans-serif; font-size: 10px; fill: #000; opacity: 1;">55-59</text></g></g><path class="foreground" d="" style="pointer-events: none; display: none; fill: none;"></path></g></g></g><path class="foreground" d="" style="display: none; fill: none;"></path></g><g transform="translate(-1,248)"><path class="background" d="M0,0h0v40h0Z" style="fill: none;"></path><g><g class="mark-group role-axis"><g transform="translate(0.5,0.5)"><path class="background" d="M0,0h0v0h0Z" style="pointer-events: none; fill: none;"></path><g><g class="mark-text role-axis-label" style="pointer-events: none;"><text text-anchor="end" transform="translate(-2,12.5)" style="font-family: sans-serif; font-size: 10px; fill: #000; opacity: 1;">South Derbyshire</text><text text-anchor="end" transform="translate(-2,32.5)" style="font-family: sans-serif; font-size: 10px; fill: #000; opacity: 1;">Sutton</text></g><g class="mark-rule role-axis-domain" style="pointer-events: none;"><line transform="translate(0,0)" x2="0" y2="40" style="fill: none; stroke: #888; stroke-width: 1; opacity: 1;"></line></g></g><path class="foreground" d="" style="pointer-events: none; display: none; fill: none;"></path></g></g><g class="mark-group role-title"><g transform="translate(-99.2607421875,20)"><path class="background" d="M0,0h0v0h0Z" style="pointer-events: none; fill: none;"></path><g><g class="mark-text role-title-text" style="pointer-events: none;"><text text-anchor="middle" transform="translate(0,0) rotate(-90) translate(0,8)" style="font-family: sans-serif; font-size: 10px; fill: #000; opacity: 1;">60-64</text></g></g><path class="foreground" d="" style="pointer-events: none; display: none; fill: none;"></path></g></g></g><path class="foreground" d="" style="display: none; fill: none;"></path></g><g transform="translate(-1,310)"><path class="background" d="M0,0h0v40h0Z" style="fill: none;"></path><g><g class="mark-group role-axis"><g transform="translate(0.5,0.5)"><path class="background" d="M0,0h0v0h0Z" style="pointer-events: none; fill: none;"></path><g><g class="mark-text role-axis-label" style="pointer-events: none;"><text text-anchor="end" transform="translate(-2,12.5)" style="font-family: sans-serif; font-size: 10px; fill: #000; opacity: 1;">South Derbyshire</text><text text-anchor="end" transform="translate(-2,32.5)" style="font-family: sans-serif; font-size: 10px; fill: #000; opacity: 1;">Sutton</text></g><g class="mark-rule role-axis-domain" style="pointer-events: none;"><line transform="translate(0,0)" x2="0" y2="40" style="fill: none; stroke: #888; stroke-width: 1; opacity: 1;"></line></g></g><path class="foreground" d="" style="pointer-events: none; display: none; fill: none;"></path></g></g><g class="mark-group role-title"><g transform="translate(-99.2607421875,20)"><path class="background" d="M0,0h0v0h0Z" style="pointer-events: none; fill: none;"></path><g><g class="mark-text role-title-text" style="pointer-events: none;"><text text-anchor="middle" transform="translate(0,0) rotate(-90) translate(0,8)" style="font-family: sans-serif; font-size: 10px; fill: #000; opacity: 1;">65-69</text></g></g><path class="foreground" d="" style="pointer-events: none; display: none; fill: none;"></path></g></g></g><path class="foreground" d="" style="display: none; fill: none;"></path></g><g transform="translate(-1,372)"><path class="background" d="M0,0h0v40h0Z" style="fill: none;"></path><g><g class="mark-group role-axis"><g transform="translate(0.5,0.5)"><path class="background" d="M0,0h0v0h0Z" style="pointer-events: none; fill: none;"></path><g><g class="mark-text role-axis-label" style="pointer-events: none;"><text text-anchor="end" transform="translate(-2,12.5)" style="font-family: sans-serif; font-size: 10px; fill: #000; opacity: 1;">South Derbyshire</text><text text-anchor="end" transform="translate(-2,32.5)" style="font-family: sans-serif; font-size: 10px; fill: #000; opacity: 1;">Sutton</text></g><g class="mark-rule role-axis-domain" style="pointer-events: none;"><line transform="translate(0,0)" x2="0" y2="40" style="fill: none; stroke: #888; stroke-width: 1; opacity: 1;"></line></g></g><path class="foreground" d="" style="pointer-events: none; display: none; fill: none;"></path></g></g><g class="mark-group role-title"><g transform="translate(-99.2607421875,20)"><path class="background" d="M0,0h0v0h0Z" style="pointer-events: none; fill: none;"></path><g><g class="mark-text role-title-text" style="pointer-events: none;"><text text-anchor="middle" transform="translate(0,0) rotate(-90) translate(0,8)" style="font-family: sans-serif; font-size: 10px; fill: #000; opacity: 1;">70-74</text></g></g><path class="foreground" d="" style="pointer-events: none; display: none; fill: none;"></path></g></g></g><path class="foreground" d="" style="display: none; fill: none;"></path></g><g transform="translate(-1,434)"><path class="background" d="M0,0h0v40h0Z" style="fill: none;"></path><g><g class="mark-group role-axis"><g transform="translate(0.5,0.5)"><path class="background" d="M0,0h0v0h0Z" style="pointer-events: none; fill: none;"></path><g><g class="mark-text role-axis-label" style="pointer-events: none;"><text text-anchor="end" transform="translate(-2,12.5)" style="font-family: sans-serif; font-size: 10px; fill: #000; opacity: 1;">South Derbyshire</text><text text-anchor="end" transform="translate(-2,32.5)" style="font-family: sans-serif; font-size: 10px; fill: #000; opacity: 1;">Sutton</text></g><g class="mark-rule role-axis-domain" style="pointer-events: none;"><line transform="translate(0,0)" x2="0" y2="40" style="fill: none; stroke: #888; stroke-width: 1; opacity: 1;"></line></g></g><path class="foreground" d="" style="pointer-events: none; display: none; fill: none;"></path></g></g><g class="mark-group role-title"><g transform="translate(-99.2607421875,20)"><path class="background" d="M0,0h0v0h0Z" style="pointer-events: none; fill: none;"></path><g><g class="mark-text role-title-text" style="pointer-events: none;"><text text-anchor="middle" transform="translate(0,0) rotate(-90) translate(0,8)" style="font-family: sans-serif; font-size: 10px; fill: #000; opacity: 1;">75-79</text></g></g><path class="foreground" d="" style="pointer-events: none; display: none; fill: none;"></path></g></g></g><path class="foreground" d="" style="display: none; fill: none;"></path></g><g transform="translate(-1,496)"><path class="background" d="M0,0h0v40h0Z" style="fill: none;"></path><g><g class="mark-group role-axis"><g transform="translate(0.5,0.5)"><path class="background" d="M0,0h0v0h0Z" style="pointer-events: none; fill: none;"></path><g><g class="mark-text role-axis-label" style="pointer-events: none;"><text text-anchor="end" transform="translate(-2,12.5)" style="font-family: sans-serif; font-size: 10px; fill: #000; opacity: 1;">South Derbyshire</text><text text-anchor="end" transform="translate(-2,32.5)" style="font-family: sans-serif; font-size: 10px; fill: #000; opacity: 1;">Sutton</text></g><g class="mark-rule role-axis-domain" style="pointer-events: none;"><line transform="translate(0,0)" x2="0" y2="40" style="fill: none; stroke: #888; stroke-width: 1; opacity: 1;"></line></g></g><path class="foreground" d="" style="pointer-events: none; display: none; fill: none;"></path></g></g><g class="mark-group role-title"><g transform="translate(-99.2607421875,20)"><path class="background" d="M0,0h0v0h0Z" style="pointer-events: none; fill: none;"></path><g><g class="mark-text role-title-text" style="pointer-events: none;"><text text-anchor="middle" transform="translate(0,0) rotate(-90) translate(0,8)" style="font-family: sans-serif; font-size: 10px; fill: #000; opacity: 1;">80+</text></g></g><path class="foreground" d="" style="pointer-events: none; display: none; fill: none;"></path></g></g></g><path class="foreground" d="" style="display: none; fill: none;"></path></g></g><g class="mark-group role-column-footer column_footer"><g transform="translate(0,537)"><path class="background" d="M0,0h400v0h-400Z" style="fill: none;"></path><g><g class="mark-group role-axis"><g transform="translate(0.5,0.5)"><path class="background" d="M0,0h0v0h0Z" style="pointer-events: none; fill: none;"></path><g><g class="mark-rule role-axis-tick" style="pointer-events: none;"><line transform="translate(0,0)" x2="0" y2="5" style="fill: none; stroke: #888; stroke-width: 1; opacity: 1;"></line><line transform="translate(40,0)" x2="0" y2="5" style="fill: none; stroke: #888; stroke-width: 1; opacity: 1;"></line><line transform="translate(80,0)" x2="0" y2="5" style="fill: none; stroke: #888; stroke-width: 1; opacity: 1;"></line><line transform="translate(120,0)" x2="0" y2="5" style="fill: none; stroke: #888; stroke-width: 1; opacity: 1;"></line><line transform="translate(160,0)" x2="0" y2="5" style="fill: none; stroke: #888; stroke-width: 1; opacity: 1;"></line><line transform="translate(200,0)" x2="0" y2="5" style="fill: none; stroke: #888; stroke-width: 1; opacity: 1;"></line><line transform="translate(240,0)" x2="0" y2="5" style="fill: none; stroke: #888; stroke-width: 1; opacity: 1;"></line><line transform="translate(280,0)" x2="0" y2="5" style="fill: none; stroke: #888; stroke-width: 1; opacity: 1;"></line><line transform="translate(320,0)" x2="0" y2="5" style="fill: none; stroke: #888; stroke-width: 1; opacity: 1;"></line><line transform="translate(360,0)" x2="0" y2="5" style="fill: none; stroke: #888; stroke-width: 1; opacity: 1;"></line><line transform="translate(400,0)" x2="0" y2="5" style="fill: none; stroke: #888; stroke-width: 1; opacity: 1;"></line></g><g class="mark-text role-axis-label" style="pointer-events: none;"><text text-anchor="start" transform="translate(0,15)" style="font-family: sans-serif; font-size: 10px; fill: #000; opacity: 1;">0</text><text text-anchor="middle" transform="translate(40,15)" style="font-family: sans-serif; font-size: 10px; fill: #000; opacity: 1;">10</text><text text-anchor="middle" transform="translate(80,15)" style="font-family: sans-serif; font-size: 10px; fill: #000; opacity: 1;">20</text><text text-anchor="middle" transform="translate(120,15)" style="font-family: sans-serif; font-size: 10px; fill: #000; opacity: 1;">30</text><text text-anchor="middle" transform="translate(160,15)" style="font-family: sans-serif; font-size: 10px; fill: #000; opacity: 1;">40</text><text text-anchor="middle" transform="translate(200,15)" style="font-family: sans-serif; font-size: 10px; fill: #000; opacity: 1;">50</text><text text-anchor="middle" transform="translate(240,15)" style="font-family: sans-serif; font-size: 10px; fill: #000; opacity: 1;">60</text><text text-anchor="middle" transform="translate(280,15)" style="font-family: sans-serif; font-size: 10px; fill: #000; opacity: 1;">70</text><text text-anchor="middle" transform="translate(320,15)" style="font-family: sans-serif; font-size: 10px; fill: #000; opacity: 1;">80</text><text text-anchor="middle" transform="translate(360,15)" style="font-family: sans-serif; font-size: 10px; fill: #000; opacity: 1;">90</text><text text-anchor="end" transform="translate(400,15)" style="font-family: sans-serif; font-size: 10px; fill: #000; opacity: 1;">100</text></g><g class="mark-rule role-axis-domain" style="pointer-events: none;"><line transform="translate(0,0)" x2="400" y2="0" style="fill: none; stroke: #888; stroke-width: 1; opacity: 1;"></line></g><g class="mark-text role-axis-title" style="pointer-events: none;"><text text-anchor="middle" transform="translate(200,30)" style="font-family: sans-serif; font-size: 11px; font-weight: bold; fill: #000; opacity: 1;">Percentage</text></g></g><path class="foreground" d="" style="pointer-events: none; display: none; fill: none;"></path></g></g></g><path class="foreground" d="" style="display: none; fill: none;"></path></g></g><g class="mark-group role-scope cell"><g transform="translate(0,0)"><path class="background" d="M0.5,0.5h400v40h-400Z" style="fill: none; stroke: #ddd;"></path><g><g class="mark-group role-axis"><g transform="translate(0.5,40.5)"><path class="background" d="M0,0h0v0h0Z" style="pointer-events: none; fill: none;"></path><g><g class="mark-rule role-axis-grid" style="pointer-events: none;"><line transform="translate(0,0)" x2="0" y2="-40" style="fill: none; stroke: #ddd; stroke-width: 1; opacity: 1;"></line><line transform="translate(40,0)" x2="0" y2="-40" style="fill: none; stroke: #ddd; stroke-width: 1; opacity: 1;"></line><line transform="translate(80,0)" x2="0" y2="-40" style="fill: none; stroke: #ddd; stroke-width: 1; opacity: 1;"></line><line transform="translate(120,0)" x2="0" y2="-40" style="fill: none; stroke: #ddd; stroke-width: 1; opacity: 1;"></line><line transform="translate(160,0)" x2="0" y2="-40" style="fill: none; stroke: #ddd; stroke-width: 1; opacity: 1;"></line><line transform="translate(200,0)" x2="0" y2="-40" style="fill: none; stroke: #ddd; stroke-width: 1; opacity: 1;"></line><line transform="translate(240,0)" x2="0" y2="-40" style="fill: none; stroke: #ddd; stroke-width: 1; opacity: 1;"></line><line transform="translate(280,0)" x2="0" y2="-40" style="fill: none; stroke: #ddd; stroke-width: 1; opacity: 1;"></line><line transform="translate(320,0)" x2="0" y2="-40" style="fill: none; stroke: #ddd; stroke-width: 1; opacity: 1;"></line><line transform="translate(360,0)" x2="0" y2="-40" style="fill: none; stroke: #ddd; stroke-width: 1; opacity: 1;"></line><line transform="translate(400,0)" x2="0" y2="-40" style="fill: none; stroke: #ddd; stroke-width: 1; opacity: 1;"></line></g></g><path class="foreground" d="" style="pointer-events: none; display: none; fill: none;"></path></g></g><g class="mark-rect role-mark child_marks"><path d="M0,1h88.81162551266688v18h-88.81162551266688Z" style="fill: #4c78a8;"></path><path d="M0,21h60.51715151194676v18h-60.51715151194676Z" style="fill: #f58518;"></path></g></g><path class="foreground" d="" style="display: none; fill: none;"></path></g><g transform="translate(0,62)"><path class="background" d="M0.5,0.5h400v40h-400Z" style="fill: none; stroke: #ddd;"></path><g><g class="mark-group role-axis"><g transform="translate(0.5,40.5)"><path class="background" d="M0,0h0v0h0Z" style="pointer-events: none; fill: none;"></path><g><g class="mark-rule role-axis-grid" style="pointer-events: none;"><line transform="translate(0,0)" x2="0" y2="-40" style="fill: none; stroke: #ddd; stroke-width: 1; opacity: 1;"></line><line transform="translate(40,0)" x2="0" y2="-40" style="fill: none; stroke: #ddd; stroke-width: 1; opacity: 1;"></line><line transform="translate(80,0)" x2="0" y2="-40" style="fill: none; stroke: #ddd; stroke-width: 1; opacity: 1;"></line><line transform="translate(120,0)" x2="0" y2="-40" style="fill: none; stroke: #ddd; stroke-width: 1; opacity: 1;"></line><line transform="translate(160,0)" x2="0" y2="-40" style="fill: none; stroke: #ddd; stroke-width: 1; opacity: 1;"></line><line transform="translate(200,0)" x2="0" y2="-40" style="fill: none; stroke: #ddd; stroke-width: 1; opacity: 1;"></line><line transform="translate(240,0)" x2="0" y2="-40" style="fill: none; stroke: #ddd; stroke-width: 1; opacity: 1;"></line><line transform="translate(280,0)" x2="0" y2="-40" style="fill: none; stroke: #ddd; stroke-width: 1; opacity: 1;"></line><line transform="translate(320,0)" x2="0" y2="-40" style="fill: none; stroke: #ddd; stroke-width: 1; opacity: 1;"></line><line transform="translate(360,0)" x2="0" y2="-40" style="fill: none; stroke: #ddd; stroke-width: 1; opacity: 1;"></line><line transform="translate(400,0)" x2="0" y2="-40" style="fill: none; stroke: #ddd; stroke-width: 1; opacity: 1;"></line></g></g><path class="foreground" d="" style="pointer-events: none; display: none; fill: none;"></path></g></g><g class="mark-rect role-mark child_marks"><path d="M0,1h296.35735176814677v18h-296.35735176814677Z" style="fill: #4c78a8;"></path><path d="M0,21h201.82748538011697v18h-201.82748538011697Z" style="fill: #f58518;"></path></g></g><path class="foreground" d="" style="display: none; fill: none;"></path></g><g transform="translate(0,124)"><path class="background" d="M0.5,0.5h400v40h-400Z" style="fill: none; stroke: #ddd;"></path><g><g class="mark-group role-axis"><g transform="translate(0.5,40.5)"><path class="background" d="M0,0h0v0h0Z" style="pointer-events: none; fill: none;"></path><g><g class="mark-rule role-axis-grid" style="pointer-events: none;"><line transform="translate(0,0)" x2="0" y2="-40" style="fill: none; stroke: #ddd; stroke-width: 1; opacity: 1;"></line><line transform="translate(40,0)" x2="0" y2="-40" style="fill: none; stroke: #ddd; stroke-width: 1; opacity: 1;"></line><line transform="translate(80,0)" x2="0" y2="-40" style="fill: none; stroke: #ddd; stroke-width: 1; opacity: 1;"></line><line transform="translate(120,0)" x2="0" y2="-40" style="fill: none; stroke: #ddd; stroke-width: 1; opacity: 1;"></line><line transform="translate(160,0)" x2="0" y2="-40" style="fill: none; stroke: #ddd; stroke-width: 1; opacity: 1;"></line><line transform="translate(200,0)" x2="0" y2="-40" style="fill: none; stroke: #ddd; stroke-width: 1; opacity: 1;"></line><line transform="translate(240,0)" x2="0" y2="-40" style="fill: none; stroke: #ddd; stroke-width: 1; opacity: 1;"></line><line transform="translate(280,0)" x2="0" y2="-40" style="fill: none; stroke: #ddd; stroke-width: 1; opacity: 1;"></line><line transform="translate(320,0)" x2="0" y2="-40" style="fill: none; stroke: #ddd; stroke-width: 1; opacity: 1;"></line><line transform="translate(360,0)" x2="0" y2="-40" style="fill: none; stroke: #ddd; stroke-width: 1; opacity: 1;"></line><line transform="translate(400,0)" x2="0" y2="-40" style="fill: none; stroke: #ddd; stroke-width: 1; opacity: 1;"></line></g></g><path class="foreground" d="" style="pointer-events: none; display: none; fill: none;"></path></g></g><g class="mark-rect role-mark child_marks"><path d="M0,1h367.5913083680074v18h-367.5913083680074Z" style="fill: #4c78a8;"></path><path d="M0,21h325.80871562559815v18h-325.80871562559815Z" style="fill: #f58518;"></path></g></g><path class="foreground" d="" style="display: none; fill: none;"></path></g><g transform="translate(0,186)"><path class="background" d="M0.5,0.5h400v40h-400Z" style="fill: none; stroke: #ddd;"></path><g><g class="mark-group role-axis"><g transform="translate(0.5,40.5)"><path class="background" d="M0,0h0v0h0Z" style="pointer-events: none; fill: none;"></path><g><g class="mark-rule role-axis-grid" style="pointer-events: none;"><line transform="translate(0,0)" x2="0" y2="-40" style="fill: none; stroke: #ddd; stroke-width: 1; opacity: 1;"></line><line transform="translate(40,0)" x2="0" y2="-40" style="fill: none; stroke: #ddd; stroke-width: 1; opacity: 1;"></line><line transform="translate(80,0)" x2="0" y2="-40" style="fill: none; stroke: #ddd; stroke-width: 1; opacity: 1;"></line><line transform="translate(120,0)" x2="0" y2="-40" style="fill: none; stroke: #ddd; stroke-width: 1; opacity: 1;"></line><line transform="translate(160,0)" x2="0" y2="-40" style="fill: none; stroke: #ddd; stroke-width: 1; opacity: 1;"></line><line transform="translate(200,0)" x2="0" y2="-40" style="fill: none; stroke: #ddd; stroke-width: 1; opacity: 1;"></line><line transform="translate(240,0)" x2="0" y2="-40" style="fill: none; stroke: #ddd; stroke-width: 1; opacity: 1;"></line><line transform="translate(280,0)" x2="0" y2="-40" style="fill: none; stroke: #ddd; stroke-width: 1; opacity: 1;"></line><line transform="translate(320,0)" x2="0" y2="-40" style="fill: none; stroke: #ddd; stroke-width: 1; opacity: 1;"></line><line transform="translate(360,0)" x2="0" y2="-40" style="fill: none; stroke: #ddd; stroke-width: 1; opacity: 1;"></line><line transform="translate(400,0)" x2="0" y2="-40" style="fill: none; stroke: #ddd; stroke-width: 1; opacity: 1;"></line></g></g><path class="foreground" d="" style="pointer-events: none; display: none; fill: none;"></path></g></g><g class="mark-rect role-mark child_marks"><path d="M0,1h367.55677564262544v18h-367.55677564262544Z" style="fill: #4c78a8;"></path><path d="M0,21h339.3004681905811v18h-339.3004681905811Z" style="fill: #f58518;"></path></g></g><path class="foreground" d="" style="display: none; fill: none;"></path></g><g transform="translate(0,248)"><path class="background" d="M0.5,0.5h400v40h-400Z" style="fill: none; stroke: #ddd;"></path><g><g class="mark-group role-axis"><g transform="translate(0.5,40.5)"><path class="background" d="M0,0h0v0h0Z" style="pointer-events: none; fill: none;"></path><g><g class="mark-rule role-axis-grid" style="pointer-events: none;"><line transform="translate(0,0)" x2="0" y2="-40" style="fill: none; stroke: #ddd; stroke-width: 1; opacity: 1;"></line><line transform="translate(40,0)" x2="0" y2="-40" style="fill: none; stroke: #ddd; stroke-width: 1; opacity: 1;"></line><line transform="translate(80,0)" x2="0" y2="-40" style="fill: none; stroke: #ddd; stroke-width: 1; opacity: 1;"></line><line transform="translate(120,0)" x2="0" y2="-40" style="fill: none; stroke: #ddd; stroke-width: 1; opacity: 1;"></line><line transform="translate(160,0)" x2="0" y2="-40" style="fill: none; stroke: #ddd; stroke-width: 1; opacity: 1;"></line><line transform="translate(200,0)" x2="0" y2="-40" style="fill: none; stroke: #ddd; stroke-width: 1; opacity: 1;"></line><line transform="translate(240,0)" x2="0" y2="-40" style="fill: none; stroke: #ddd; stroke-width: 1; opacity: 1;"></line><line transform="translate(280,0)" x2="0" y2="-40" style="fill: none; stroke: #ddd; stroke-width: 1; opacity: 1;"></line><line transform="translate(320,0)" x2="0" y2="-40" style="fill: none; stroke: #ddd; stroke-width: 1; opacity: 1;"></line><line transform="translate(360,0)" x2="0" y2="-40" style="fill: none; stroke: #ddd; stroke-width: 1; opacity: 1;"></line><line transform="translate(400,0)" x2="0" y2="-40" style="fill: none; stroke: #ddd; stroke-width: 1; opacity: 1;"></line></g></g><path class="foreground" d="" style="pointer-events: none; display: none; fill: none;"></path></g></g><g class="mark-rect role-mark child_marks"><path d="M0,1h375.43751918943815v18h-375.43751918943815Z" style="fill: #4c78a8;"></path><path d="M0,21h345.52542973595604v18h-345.52542973595604Z" style="fill: #f58518;"></path></g></g><path class="foreground" d="" style="display: none; fill: none;"></path></g><g transform="translate(0,310)"><path class="background" d="M0.5,0.5h400v40h-400Z" style="fill: none; stroke: #ddd;"></path><g><g class="mark-group role-axis"><g transform="translate(0.5,40.5)"><path class="background" d="M0,0h0v0h0Z" style="pointer-events: none; fill: none;"></path><g><g class="mark-rule role-axis-grid" style="pointer-events: none;"><line transform="translate(0,0)" x2="0" y2="-40" style="fill: none; stroke: #ddd; stroke-width: 1; opacity: 1;"></line><line transform="translate(40,0)" x2="0" y2="-40" style="fill: none; stroke: #ddd; stroke-width: 1; opacity: 1;"></line><line transform="translate(80,0)" x2="0" y2="-40" style="fill: none; stroke: #ddd; stroke-width: 1; opacity: 1;"></line><line transform="translate(120,0)" x2="0" y2="-40" style="fill: none; stroke: #ddd; stroke-width: 1; opacity: 1;"></line><line transform="translate(160,0)" x2="0" y2="-40" style="fill: none; stroke: #ddd; stroke-width: 1; opacity: 1;"></line><line transform="translate(200,0)" x2="0" y2="-40" style="fill: none; stroke: #ddd; stroke-width: 1; opacity: 1;"></line><line transform="translate(240,0)" x2="0" y2="-40" style="fill: none; stroke: #ddd; stroke-width: 1; opacity: 1;"></line><line transform="translate(280,0)" x2="0" y2="-40" style="fill: none; stroke: #ddd; stroke-width: 1; opacity: 1;"></line><line transform="translate(320,0)" x2="0" y2="-40" style="fill: none; stroke: #ddd; stroke-width: 1; opacity: 1;"></line><line transform="translate(360,0)" x2="0" y2="-40" style="fill: none; stroke: #ddd; stroke-width: 1; opacity: 1;"></line><line transform="translate(400,0)" x2="0" y2="-40" style="fill: none; stroke: #ddd; stroke-width: 1; opacity: 1;"></line></g></g><path class="foreground" d="" style="pointer-events: none; display: none; fill: none;"></path></g></g><g class="mark-rect role-mark child_marks"><path d="M0,1h381.0374441772587v18h-381.0374441772587Z" style="fill: #4c78a8;"></path><path d="M0,21h355.7957428035734v18h-355.7957428035734Z" style="fill: #f58518;"></path></g></g><path class="foreground" d="" style="display: none; fill: none;"></path></g><g transform="translate(0,372)"><path class="background" d="M0.5,0.5h400v40h-400Z" style="fill: none; stroke: #ddd;"></path><g><g class="mark-group role-axis"><g transform="translate(0.5,40.5)"><path class="background" d="M0,0h0v0h0Z" style="pointer-events: none; fill: none;"></path><g><g class="mark-rule role-axis-grid" style="pointer-events: none;"><line transform="translate(0,0)" x2="0" y2="-40" style="fill: none; stroke: #ddd; stroke-width: 1; opacity: 1;"></line><line transform="translate(40,0)" x2="0" y2="-40" style="fill: none; stroke: #ddd; stroke-width: 1; opacity: 1;"></line><line transform="translate(80,0)" x2="0" y2="-40" style="fill: none; stroke: #ddd; stroke-width: 1; opacity: 1;"></line><line transform="translate(120,0)" x2="0" y2="-40" style="fill: none; stroke: #ddd; stroke-width: 1; opacity: 1;"></line><line transform="translate(160,0)" x2="0" y2="-40" style="fill: none; stroke: #ddd; stroke-width: 1; opacity: 1;"></line><line transform="translate(200,0)" x2="0" y2="-40" style="fill: none; stroke: #ddd; stroke-width: 1; opacity: 1;"></line><line transform="translate(240,0)" x2="0" y2="-40" style="fill: none; stroke: #ddd; stroke-width: 1; opacity: 1;"></line><line transform="translate(280,0)" x2="0" y2="-40" style="fill: none; stroke: #ddd; stroke-width: 1; opacity: 1;"></line><line transform="translate(320,0)" x2="0" y2="-40" style="fill: none; stroke: #ddd; stroke-width: 1; opacity: 1;"></line><line transform="translate(360,0)" x2="0" y2="-40" style="fill: none; stroke: #ddd; stroke-width: 1; opacity: 1;"></line><line transform="translate(400,0)" x2="0" y2="-40" style="fill: none; stroke: #ddd; stroke-width: 1; opacity: 1;"></line></g></g><path class="foreground" d="" style="pointer-events: none; display: none; fill: none;"></path></g></g><g class="mark-rect role-mark child_marks"><path d="M0,1h387.15338715338714v18h-387.15338715338714Z" style="fill: #4c78a8;"></path><path d="M0,21h368.7665553380168v18h-368.7665553380168Z" style="fill: #f58518;"></path></g></g><path class="foreground" d="" style="display: none; fill: none;"></path></g><g transform="translate(0,434)"><path class="background" d="M0.5,0.5h400v40h-400Z" style="fill: none; stroke: #ddd;"></path><g><g class="mark-group role-axis"><g transform="translate(0.5,40.5)"><path class="background" d="M0,0h0v0h0Z" style="pointer-events: none; fill: none;"></path><g><g class="mark-rule role-axis-grid" style="pointer-events: none;"><line transform="translate(0,0)" x2="0" y2="-40" style="fill: none; stroke: #ddd; stroke-width: 1; opacity: 1;"></line><line transform="translate(40,0)" x2="0" y2="-40" style="fill: none; stroke: #ddd; stroke-width: 1; opacity: 1;"></line><line transform="translate(80,0)" x2="0" y2="-40" style="fill: none; stroke: #ddd; stroke-width: 1; opacity: 1;"></line><line transform="translate(120,0)" x2="0" y2="-40" style="fill: none; stroke: #ddd; stroke-width: 1; opacity: 1;"></line><line transform="translate(160,0)" x2="0" y2="-40" style="fill: none; stroke: #ddd; stroke-width: 1; opacity: 1;"></line><line transform="translate(200,0)" x2="0" y2="-40" style="fill: none; stroke: #ddd; stroke-width: 1; opacity: 1;"></line><line transform="translate(240,0)" x2="0" y2="-40" style="fill: none; stroke: #ddd; stroke-width: 1; opacity: 1;"></line><line transform="translate(280,0)" x2="0" y2="-40" style="fill: none; stroke: #ddd; stroke-width: 1; opacity: 1;"></line><line transform="translate(320,0)" x2="0" y2="-40" style="fill: none; stroke: #ddd; stroke-width: 1; opacity: 1;"></line><line transform="translate(360,0)" x2="0" y2="-40" style="fill: none; stroke: #ddd; stroke-width: 1; opacity: 1;"></line><line transform="translate(400,0)" x2="0" y2="-40" style="fill: none; stroke: #ddd; stroke-width: 1; opacity: 1;"></line></g></g><path class="foreground" d="" style="pointer-events: none; display: none; fill: none;"></path></g></g><g class="mark-rect role-mark child_marks"><path d="M0,1h390.11124845488257v18h-390.11124845488257Z" style="fill: #4c78a8;"></path><path d="M0,21h372.7511490479317v18h-372.7511490479317Z" style="fill: #f58518;"></path></g></g><path class="foreground" d="" style="display: none; fill: none;"></path></g><g transform="translate(0,496)"><path class="background" d="M0.5,0.5h400v40h-400Z" style="fill: none; stroke: #ddd;"></path><g><g class="mark-group role-axis"><g transform="translate(0.5,40.5)"><path class="background" d="M0,0h0v0h0Z" style="pointer-events: none; fill: none;"></path><g><g class="mark-rule role-axis-grid" style="pointer-events: none;"><line transform="translate(0,0)" x2="0" y2="-40" style="fill: none; stroke: #ddd; stroke-width: 1; opacity: 1;"></line><line transform="translate(40,0)" x2="0" y2="-40" style="fill: none; stroke: #ddd; stroke-width: 1; opacity: 1;"></line><line transform="translate(80,0)" x2="0" y2="-40" style="fill: none; stroke: #ddd; stroke-width: 1; opacity: 1;"></line><line transform="translate(120,0)" x2="0" y2="-40" style="fill: none; stroke: #ddd; stroke-width: 1; opacity: 1;"></line><line transform="translate(160,0)" x2="0" y2="-40" style="fill: none; stroke: #ddd; stroke-width: 1; opacity: 1;"></line><line transform="translate(200,0)" x2="0" y2="-40" style="fill: none; stroke: #ddd; stroke-width: 1; opacity: 1;"></line><line transform="translate(240,0)" x2="0" y2="-40" style="fill: none; stroke: #ddd; stroke-width: 1; opacity: 1;"></line><line transform="translate(280,0)" x2="0" y2="-40" style="fill: none; stroke: #ddd; stroke-width: 1; opacity: 1;"></line><line transform="translate(320,0)" x2="0" y2="-40" style="fill: none; stroke: #ddd; stroke-width: 1; opacity: 1;"></line><line transform="translate(360,0)" x2="0" y2="-40" style="fill: none; stroke: #ddd; stroke-width: 1; opacity: 1;"></line><line transform="translate(400,0)" x2="0" y2="-40" style="fill: none; stroke: #ddd; stroke-width: 1; opacity: 1;"></line></g></g><path class="foreground" d="" style="pointer-events: none; display: none; fill: none;"></path></g></g><g class="mark-rect role-mark child_marks"><path d="M0,1h389.94295372913587v18h-389.94295372913587Z" style="fill: #4c78a8;"></path><path d="M0,21h373.4304314244731v18h-373.4304314244731Z" style="fill: #f58518;"></path></g></g><path class="foreground" d="" style="display: none; fill: none;"></path></g></g></g><path class="foreground" d="" style="display: none; fill: none;"></path></g></g></g></svg>